Coordinates
version=1
nRows=13
nColumns=34
inDegrees=yes

Units are S.I. units (second, meters, Newtons, ...)
If the header above contains a line with 'inDegrees', this indicates whether rotational values are in degrees (yes) or radians (no).

endheader
time	pelvis_tilt	pelvis_list	pelvis_rotation	pelvis_tx	pelvis_ty	pelvis_tz	hip_flexion_r	hip_adduction_r	hip_rotation_r	knee_angle_r	ankle_angle_r	subtalar_angle_r	mtp_angle_r	hip_flexion_l	hip_adduction_l	hip_rotation_l	knee_angle_l	ankle_angle_l	subtalar_angle_l	mtp_angle_l	lumbar_extension	lumbar_bending	lumbar_rotation	arm_flex_r	arm_add_r	arm_rot_r	elbow_flex_r	pro_sup_r	arm_flex_l	arm_add_l	arm_rot_l	elbow_flex_l	pro_sup_l
      3.50000000	      6.43947466	    -11.41935923	    -10.95403473	      0.87328017	      0.86973165	     -0.58695560	     21.13506310	      6.26169199	     -6.75041254	     19.14481242	     48.05901527	      6.86613198	      0.00000000	      8.44671578	     -6.20265765	     -9.67970536	     22.05673305	      5.88251032	    -12.46883952	      0.00000000	    -18.04525553	      1.88273154	      2.64311022	     35.24738234	     11.45464937	     74.69527819	    106.69514094	     88.00081359	     23.55390554	      3.96832781	     69.13049616	    118.09867034	     83.35260226
      3.51666670	      5.63021534	    -11.69024260	    -10.91549823	      0.87272920	      0.86285457	     -0.58727262	     22.29019066	      7.04928742	     -5.73293483	     17.92606040	     50.00000000	     10.92214649	      0.00000000	     10.72656276	     -6.82003687	     -8.79880237	     24.62115653	      5.88567183	    -13.19424966	      0.00000000	    -17.60163346	      2.12194983	      2.66450742	     34.91543015	     10.99150820	     74.53004876	    107.01654477	     88.14035465	     24.58047846	      3.18257102	     70.39557064	    117.67636053	     82.39520106
      3.53333330	      5.60503273	    -11.65564961	    -11.31575894	      0.87101515	      0.86654329	     -0.58772933	     22.51432599	      7.31983946	     -4.60134009	     17.16408367	     50.00000000	     11.20939935	      0.00000000	     11.53211843	     -6.98966005	     -8.98207326	     26.52470550	      6.42796971	    -14.45116976	      0.00000000	    -17.91901998	      1.77901996	      2.63186678	     34.95308122	     10.63869684	     74.75498490	    106.44827422	     88.18525432	     25.32063161	      2.10239241	     70.86741973	    117.15462105	     82.14781808
      3.55000000	      4.33599964	    -10.78327543	    -11.72969624	      0.87029115	      0.86054582	     -0.58567323	     24.71563624	      6.96894242	     -3.27421297	     17.39693702	     50.00000000	     10.84991747	      0.00000000	     14.10189367	     -6.40797144	     -8.54316108	     29.13510258	      8.01479451	    -18.62516254	      0.00000000	    -16.54561107	      0.76150130	      2.92067270	     34.35009986	     10.41298781	     75.07999216	    105.41227448	     88.37189113	     25.75053123	      1.12503765	     72.88496296	    116.59134415	     80.38725576
      3.56666670	      4.01591208	    -10.09262158	    -11.93605586	      0.87135240	      0.85861034	     -0.58539344	     25.66139376	      6.59789737	     -2.43585884	     17.13604471	     50.00000000	     11.28547838	      0.00000000	     15.55136282	     -5.86890069	     -8.28031104	     31.60929277	      9.79710964	    -21.99100349	      0.00000000	    -16.31171808	     -0.21728388	      2.88102119	     33.95475310	     10.45941095	     75.65753253	    104.33461944	     88.53774017	     26.05750691	      0.02191786	     74.25269962	    116.30665990	     78.92239226
      3.58333330	      4.17491240	     -9.68988170	    -12.19723106	      0.87152746	      0.85833406	     -0.58679180	     26.09405012	      6.38254875	     -1.67881694	     17.37278504	     49.53281639	     11.74201477	      0.00000000	     15.78047405	     -5.50237819	     -8.80259262	     32.72327364	     11.75338686	    -24.32943958	      0.00000000	    -16.73127810	     -0.92221267	      2.69323038	     33.78719812	     10.41637235	     76.04010125	    103.65943242	     88.57275369	     26.03936062	     -1.12640088	     75.02583496	    115.77629857	     78.62267607
      3.60000000	      3.38280025	     -9.53817860	    -12.58558866	      0.86735573	      0.85458638	     -0.58511370	     27.90368876	      6.77364489	     -0.75396162	     18.19948551	     48.90848441	     10.12528108	      0.00000000	     17.39316560	     -5.59846792	     -8.83135847	     34.31291016	     13.92593554	    -28.38048052	      0.00000000	    -16.35799657	     -1.17275750	      2.90483939	     33.98685515	     10.44929994	     76.76843146	    102.27351448	     88.60217728	     26.51634435	     -2.16275958	     76.37948127	    115.49911910	     77.05564654
      3.61666670	      3.22865654	     -9.77414260	    -12.90254410	      0.86363915	      0.85402046	     -0.58520154	     28.98439293	      7.47189475	     -0.13589758	     19.09579495	     49.22182983	      9.75062603	      0.00000000	     18.36171857	     -6.15234767	     -8.81855044	     35.99360661	     15.48364122	    -30.61709867	      0.00000000	    -16.96198112	     -1.21695575	      3.25803196	     34.29546314	     10.22479419	     77.12613644	    101.41401624	     88.60547080	     27.00144385	     -2.98873103	     77.14443130	    115.07945538	     76.49019668
      3.63333330	      2.23351290	     -9.73011897	    -13.09192384	      0.86128736	      0.85209624	     -0.58457419	     31.02221030	      8.07918209	      0.61170612	     20.18193761	     48.96387525	      8.00187898	      0.00000000	     20.76682180	     -6.55931763	     -8.30314823	     37.89522598	     14.19688295	    -33.74160629	      0.00000000	    -16.53646374	     -1.25510941	      3.80562752	     34.23355801	      9.93831003	     76.91151884	    100.30845846	     88.43275847	     27.94364490	     -3.67141463	     78.41721616	    114.57852046	     74.07192795
      3.65000000	      2.27868430	    -10.24755310	    -13.18502021	      0.86050234	      0.84832019	     -0.58481476	     31.37106094	      8.89620226	      0.88760252	     20.50619244	     49.86614768	      7.69576097	      0.00000000	     21.76036659	     -7.28259457	     -7.66035402	     39.65017182	     14.38642431	    -34.72410087	      0.00000000	    -17.41649186	     -0.90398349	      4.13577471	     34.56845608	      9.95623575	     76.96402402	     99.48480633	     88.41814666	     28.94368073	     -4.19081232	     78.87357485	    114.59813514	     73.73281054
      3.66666670	      1.89694447	    -10.44424836	    -13.38650761	      0.86098750	      0.84233517	     -0.58393069	     32.53213576	      9.57820097	      1.60166778	     21.77076962	     49.89842720	      6.03230944	      0.00000000	     23.41958056	     -7.86672527	     -7.04913812	     42.57972365	     16.10328194	    -35.00000000	      0.00000000	    -17.56969806	     -0.69251312	      4.55943417	     34.41631458	      9.92236709	     76.91521548	     98.91906125	     88.39527602	     29.95949587	     -4.84594140	     79.66507805	    115.00476230	     73.05655422
      3.68333330	      1.00965122	    -10.54660902	    -13.91237794	      0.86003475	      0.83884442	     -0.58407806	     34.45279704	     10.43444420	      2.28501615	     23.17356719	     49.83950543	      4.24624315	      0.00000000	     25.58884977	     -8.46593742	     -6.79108759	     45.74426108	     20.41737873	    -35.00000000	      0.00000000	    -17.20460869	     -0.73330540	      5.06444420	     34.25449595	      9.97819514	     76.80249956	     98.81723187	     88.43551586	     30.16477371	     -4.89611574	     80.03175633	    115.07334874	     72.18765302
      3.70000000	      0.77006448	    -11.05744429	    -14.07421258	      0.86049819	      0.83846934	     -0.58546795	     35.24801428	     11.24917096	      2.33214840	     24.05296694	     49.41557169	      3.41437220	      0.00000000	     26.22790954	     -8.88115507	     -6.54193606	     48.11242622	     27.55334139	    -35.00000000	      0.00000000	    -17.54175384	     -0.11022731	      5.49135018	     34.18871741	      9.90397322	     76.78759835	     98.34751092	     88.46576611	     30.33250358	     -4.87939494	     80.26942660	    115.14673189	     71.52914961
